<svg width="16" height="15" viewBox="0 0 16 15" fill="none" xmlns="http://www.w3.org/2000/svg">
<path d="M7.5514 7.72727C7.5514 7.72324 7.55145 7.71924 7.55156 7.71525L7.97006 7.72572V7.72727V8.15342C7.72699 8.14535 7.5514 7.9482 7.5514 7.72727ZM7.97006 7.72538L7.55156 7.71517C7.55819 7.46108 7.77317 7.29311 7.97006 7.29311V7.72538ZM7.98389 7.72606L7.98556 7.7261L8.03204 7.72727L8.41166 7.73676C8.40578 7.97227 8.21487 8.15367 7.98556 8.15367C7.98151 8.15367 7.97748 8.15362 7.97347 8.15352L7.98386 7.72727L7.98389 7.72606ZM7.9839 7.72571L7.98556 7.65751L7.99444 7.29341C8.21562 7.2988 8.41281 7.48682 8.41181 7.72727C8.41179 7.73022 8.41175 7.73318 8.41168 7.73615L8.04755 7.72727L7.98556 7.72575L7.9839 7.72571Z" fill="#8A91F2" stroke="#0064E1" stroke-width="2"/>
</svg>
