<svg xmlns="http://www.w3.org/2000/svg" viewBox="0 0 32 32" id="Download"><g data-name="Layer 22" fill="#6ace90" class="color000000 svgShape"><path d="M29,18.4229a.5.5,0,0,0-.5.5v9.0317a.5.5,0,0,1-.5.5H4a.5.5,0,0,1-.5-.5V18.9229a.5.5,0,0,0-1,0v9.0317a1.5017,1.5017,0,0,0,1.5,1.5H28a1.5017,1.5017,0,0,0,1.5-1.5V18.9229A.5.5,0,0,0,29,18.4229Z" fill="#6ace90" class="color000000 svgShape"></path><path d="M15.6465,25.3535l.0014.001.001.0015a.4875.4875,0,0,0,.093.0611.5172.5172,0,0,0,.07.0458.497.497,0,0,0,.379-.0009h.0007l.0024-.0019a.4993.4993,0,0,0,.1622-.1089l5.99-6.0772a.5.5,0,1,0-.7119-.7021L16.5,23.7806V6.9546a.5.5,0,1,0-1,0V23.793l-5.2231-5.2237a.5.5,0,1,0-.7071.7071Z" fill="#6ace90" class="color000000 svgShape"></path></g></svg>